PathFileType	4	(X/Y/Z)	C:/Users/opensim2020/Desktop/walking_exp_matlab/subject02_walking13_straight_02.trc																																																																																																																									
DataRate	CameraRate	NumFrames	NumMarkers	Units	OrigDataRate	OrigDataStartFrame	OrigNumFrames																																																																																																																					
100	100	5	41	mm	100	959	125																																																																																																																					
Frame#	Time	LFHD			RFHD			LBHD			RBHD			C7			T10			CLAV			STRN			RBAK			LSHO			LUPA			LELB			LFRM			LWRA			LWRB			LFIN			RSHO			RUPA			RELB			RFRM			RWRA			RWRB			RFIN			LASI			RASI			LPSI			RPSI			LTHI			LKNE			LTIB			LANK			LHEE			LTOE			RTHI			RKNE			RTIB			RANK			RHEE			RTOE			*39			*40		
		X1	Y1	Z1	X2	Y2	Z2	X3	Y3	Z3	X4	Y4	Z4	X5	Y5	Z5	X6	Y6	Z6	X7	Y7	Z7	X8	Y8	Z8	X9	Y9	Z9	X10	Y10	Z10	X11	Y11	Z11	X12	Y12	Z12	X13	Y13	Z13	X14	Y14	Z14	X15	Y15	Z15	X16	Y16	Z16	X17	Y17	Z17	X18	Y18	Z18	X19	Y19	Z19	X20	Y20	Z20	X21	Y21	Z21	X22	Y22	Z22	X23	Y23	Z23	X24	Y24	Z24	X25	Y25	Z25	X26	Y26	Z26	X27	Y27	Z27	X28	Y28	Z28	X29	Y29	Z29	X30	Y30	Z30	X31	Y31	Z31	X32	Y32	Z32	X33	Y33	Z33	X34	Y34	Z34	X35	Y35	Z35	X36	Y36	Z36	X37	Y37	Z37	X38	Y38	Z38	X39	Y39	Z39	X40	Y40	Z40	X41	Y41	Z41
																																																																																																																												
94	0.93	265.42252	1714.95032	-1487.84937	234.81874	1686.59656	-1349.29468	127.87405	1668.39404	-1526.7417	85.72996	1641.1687	-1391.39172	38.80463	1516.49487	-1469.15076	5.21656	1231.34155	-1477.5896	180.09491	1452.5387	-1476.94067	244.10739	1287.47302	-1469.87585	-14.69982	1330.04248	-1414.9126	111.45958	1497.07312	-1646.87341	83.66708	1300.72253	-1740.58228	65.35705	1162.96631	-1756.31628	52.3136	1034.6134	-1779.7074	72.99567	895.94513	-1749.75305	39.60957	912.14282	-1793.15271	38.48118	844.0022	-1794.92029	100.14835	1474.03662	-1281.76794	82.36137	1281.61951	-1201.75745	123.13474	1141.38831	-1168.87195	207.78265	1051.60583	-1161.33484	315.27072	975.37671	-1190.78625	279.2739	943.16827	-1160.9585	345.73993	915.96826	-1159.72107	259.25583	998.39014	-1611.90125	237.58899	955.85956	-1362.69958	41.0354	1026.66162	-1547.66223	27.78279	1014.69617	-1433.46667	242.76387	686.83356	-1678.19763	230.47746	481.94711	-1651.1449	187.991	290.50317	-1657.06079	203.42348	68.8269	-1620.65051	165.13123	40.24277	-1572.22949	361.33429	32.82869	-1618.31189	153.58429	648.48358	-1297.56445	154.40385	451.98325	-1308.88538	-1.39575	357.23972	-1326.54309	-150.24446	247.95062	-1383.33459	-194.59061	236.92818	-1453.82214	-124.42573	91.38207	-1349.84314	161.59201	1792.87793	-1410.52222	-2845.22778	1034.24524	3360.52515
95	0.94	278.67151	1716.30334	-1487.0564	247.65846	1688.09937	-1348.79785	140.60791	1670.65015	-1526.729	98.39636	1643.31995	-1391.15112	51.36623	1518.79053	-1469.21167	17.37587	1233.59656	-1478.07361	192.4339	1454.4801	-1476.58679	256.22916	1289.27478	-1469.76721	-2.47004	1332.07361	-1415.47632	124.88311	1499.75403	-1646.78198	101.07736	1303.10425	-1741.8064	86.09962	1165.10144	-1759.24304	77.2466	1036.49036	-1783.1864	102.60503	898.63635	-1753.10876	68.68557	913.73187	-1796.70129	72.65118	846.17804	-1799.81067	112.34866	1475.79736	-1281.72217	93.26344	1283.13086	-1202.63	133.10419	1142.28528	-1170.84521	215.84343	1050.54053	-1162.85449	321.2728	971.35168	-1192.26526	284.09952	940.17816	-1162.29211	349.92883	910.63092	-1161.68628	270.43195	999.93506	-1612.00671	248.96355	958.95038	-1361.57214	52.62448	1028.84998	-1548.4342	39.31145	1017.23474	-1434.64709	248.73759	687.22192	-1679.06946	233.36208	481.71313	-1651.98267	190.15108	290.41705	-1658.38525	203.24904	68.69801	-1620.79724	164.87698	40.55479	-1572.23474	361.08713	32.90012	-1618.46277	173.39198	650.60974	-1298.69116	180.00946	455.08026	-1310.24866	25.3064	359.715	-1328.4176	-121.64897	247.66417	-1385.27588	-166.24236	234.63446	-1455.9519	-91.76479	93.13908	-1348.5791	174.88188	1794.7074	-1410.08606	-2845.80908	1034.44202	3357.52881
96	0.95	291.65451	1717.79602	-1486.68152	260.55692	1689.43457	-1348.18286	153.56337	1672.52466	-1526.20667	111.06241	1645.28406	-1390.82495	63.99007	1520.87634	-1469.21826	29.4428	1235.75098	-1478.57935	204.76511	1456.3125	-1476.17383	268.22629	1290.91235	-1469.58374	9.34303	1333.95532	-1416.375	138.33253	1502.36597	-1646.54834	118.58959	1305.61792	-1742.9458	107.03991	1167.42773	-1762.05945	102.72943	1038.50623	-1786.20874	132.91304	902.09186	-1756.58752	98.46864	915.64392	-1799.80017	107.18329	849.01605	-1804.21594	123.71213	1477.48181	-1282.13513	104.39362	1284.75305	-1203.41577	142.94582	1143.17969	-1172.62585	223.56441	1049.49573	-1164.34277	327.02524	967.53931	-1193.74792	289.04962	937.4826	-1163.35608	353.75977	905.39618	-1163.69006	281.60391	1001.33136	-1612.00525	260.12143	962.11401	-1360.45166	64.15441	1030.80225	-1549.28687	50.98826	1019.61121	-1435.828	253.92828	687.03387	-1679.20532	236.03076	481.43539	-1652.64612	192.27039	290.33585	-1659.31494	203.14056	68.58476	-1620.77478	164.65088	40.52152	-1572.37817	360.86526	32.94126	-1618.53589	193.08627	653.03302	-1299.45093	205.15492	458.30228	-1311.52283	52.36199	361.37659	-1330.65979	-92.30293	245.91139	-1386.83423	-137.17432	230.5592	-1457.23584	-57.86813	93.39095	-1348.03247	188.19154	1796.47998	-1409.54126	-2845.89136	1034.64575	3357.35205
97	0.96	304.8197	1718.83728	-1485.69678	273.33411	1690.55652	-1347.52759	166.47697	1674.26624	-1525.7428	123.64391	1646.95862	-1390.42651	76.57112	1522.74353	-1469.14709	41.48592	1237.65674	-1479.03699	217.11649	1457.89685	-1475.69348	280.27643	1292.35242	-1469.51599	21.88546	1335.57019	-1417.05505	151.67857	1504.78125	-1646.18604	136.05888	1308.1842	-1743.95642	128.14668	1169.86633	-1764.74792	128.42014	1040.68738	-1789.06287	163.6954	905.9884	-1759.90259	128.38356	917.98645	-1802.90295	141.63155	852.74353	-1808.72156	135.7733	1478.83484	-1281.92041	115.24364	1286.10193	-1204.03918	152.87317	1144.01697	-1174.13623	230.71524	1048.52222	-1165.78809	332.29279	963.55096	-1195.40674	293.83881	934.90222	-1164.22229	357.47253	900.2019	-1165.4906	292.66165	1002.42603	-1612.01135	271.07578	965.24811	-1359.39648	75.70416	1032.5824	-1550.09644	62.80882	1021.69141	-1437.073	258.73096	686.586	-1679.3269	238.4328	481.22183	-1653.13477	193.85765	290.41315	-1659.80408	203.02554	68.60677	-1620.79675	164.48611	40.56215	-1572.44336	360.70242	32.95105	-1618.64636	212.19418	655.42419	-1299.93445	230.04543	461.55371	-1312.78174	79.45923	362.40799	-1332.51111	-62.41986	242.77702	-1388.36365	-107.63932	225.03731	-1458.44824	-22.17128	92.48894	-1347.96362	201.43111	1797.83301	-1408.72595	-2845.87427	1034.26868	3357.52222
98	0.97	317.60248	1719.94519	-1485.07654	286.02338	1691.41675	-1346.66223	179.56905	1675.63147	-1524.8363	136.31133	1648.34326	-1389.90662	89.10433	1524.3689	-1468.96338	53.48448	1239.35864	-1479.5282	229.44095	1459.33484	-1475.23218	292.38245	1293.52905	-1469.47131	34.11395	1336.76245	-1417.44702	164.98837	1507.07117	-1645.70569	153.52776	1310.81494	-1744.92297	149.2993	1172.38989	-1767.28088	154.40199	1043.26587	-1791.78101	194.73064	910.44177	-1763.09729	158.49008	920.81433	-1805.93408	175.96446	856.91656	-1812.72827	147.63512	1480.19946	-1282.05066	126.76493	1287.24719	-1204.29431	162.7274	1144.69983	-1175.43201	238.57777	1047.39722	-1166.67395	337.78052	959.59186	-1196.56702	298.67041	932.27362	-1164.90942	361.46933	895.23718	-1167.13208	303.09375	1002.78455	-1612.03491	282.41672	968.34406	-1359.00427	87.19063	1034.17651	-1550.82385	74.67393	1023.57751	-1437.83765	262.93085	686.09021	-1679.64124	240.41515	481.30215	-1653.64233	194.62222	290.86142	-1659.72583	202.93192	68.67824	-1620.68347	164.6544	40.32393	-1572.08154	360.60706	32.93467	-1618.72864	230.95934	657.88928	-1300.1759	254.43817	464.87488	-1313.90942	106.68563	362.39465	-1334.27112	-31.99284	238.40855	-1389.75623	-77.61458	218.37878	-1459.69043	14.65295	90.96854	-1348.06104	214.55086	1798.96558	-1407.87964	-2845.97144	1034.29456	3357.29688
